<?xml version="1.0" encoding="UTF-8"?>
<svg xmlns="http://www.w3.org/2000/svg" viewBox="0 0 328 100" role="img" aria-label="OCF — Open Conversation Format">
  <path d="M185 -110V830H465V715H310V5H465V-110Z" transform="translate(30.00 73.36) scale(0.06400 -0.06400)" fill="#0E1116"/>
  <path d="" transform="translate(68.40 73.36) scale(0.06400 -0.06400)" fill="#0E1116"/>
  <path d="M300 -10Q195 -10 133.5 50.0Q72 110 72 216V514Q72 620 133.5 680.0Q195 740 300 740Q405 740 466.5 680.0Q528 620 528 515V216Q528 110 466.5 50.0Q405 -10 300 -10ZM300 100Q351 100 377.0 127.5Q403 155 403 206V524Q403 575 377.0 602.5Q351 630 300 630Q249 630 223.0 602.5Q197 575 197 524V206Q197 155 223.0 127.5Q249 100 300 100Z" transform="translate(106.80 73.36) scale(0.06400 -0.06400)" fill="#0E1116"/>
  <path d="M308 -10Q237 -10 185.0 16.5Q133 43 104.5 91.5Q76 140 76 206V524Q76 590 104.5 638.5Q133 687 185.0 713.5Q237 740 308 740Q378 740 430.0 713.5Q482 687 511.0 638.5Q540 590 540 524H414Q414 575 386.5 602.5Q359 630 308 630Q257 630 229.0 602.5Q201 575 201 524V206Q201 155 229.0 127.5Q257 100 308 100Q359 100 386.5 127.5Q414 155 414 206H540Q540 140 511.0 91.5Q482 43 430.0 16.5Q378 -10 308 -10Z" transform="translate(145.20 73.36) scale(0.06400 -0.06400)" fill="#0E1116"/>
  <path d="M80 0V730H534V614H203V419H508V303H205V0Z" transform="translate(183.60 73.36) scale(0.06400 -0.06400)" fill="#0E1116"/>
  <path d="" transform="translate(222.00 73.36) scale(0.06400 -0.06400)" fill="#0E1116"/>
  <path d="M135 -110V5H290V715H135V830H415V-110Z" transform="translate(260.40 73.36) scale(0.06400 -0.06400)" fill="#0E1116"/>
</svg>
